<?xml version="1.0" encoding="utf-8"?>
<!-- Generator: Adobe Illustrator 24.0.1, SVG Export Plug-In . SVG Version: 6.00 Build 0)  -->
<svg version="1.1" id="Layer_1" xmlns="http://www.w3.org/2000/svg" xmlns:xlink="http://www.w3.org/1999/xlink" x="0px" y="0px"
	 viewBox="0 0 138.23 105.83" style="enable-background:new 0 0 138.23 105.83;" xml:space="preserve">
<style type="text/css">
	.st0{fill:url(#SVGID_1_);}
	.st1{fill:#FFFFFF;}
	.st2{fill:#FD5E00;}
</style>
<g>
	<g>
		<path class="st2" d="M110.68,87.65H29.05c-2.78,0-5.04-2.26-5.04-5.04V35.04c0-2.78,2.26-5.04,5.04-5.04h81.63
			c2.78,0,5.04,2.26,5.04,5.04v47.58C115.71,85.39,113.46,87.65,110.68,87.65z M29.05,32.03c-1.66,0-3.01,1.35-3.01,3.01v47.58
			c0,1.66,1.35,3.01,3.01,3.01h81.63c1.66,0,3.01-1.35,3.01-3.01V35.04c0-1.66-1.35-3.01-3.01-3.01H29.05z"/>
	</g>
	<g>
		<path class="st2" d="M93.28,62.03H47.79c-1.22,0-2.2-0.99-2.2-2.2V2.2c0-1.22,0.99-2.2,2.2-2.2h45.49c1.22,0,2.2,0.99,2.2,2.2
			v57.63C95.49,61.04,94.5,62.03,93.28,62.03z"/>
	</g>
	<g>
		<path class="st2" d="M93.46,68.1H47.61c-1.12,0-2.02-0.91-2.02-2.02v0c0-1.12,0.91-2.02,2.02-2.02h45.85
			c1.12,0,2.02,0.91,2.02,2.02v0C95.49,67.19,94.58,68.1,93.46,68.1z"/>
	</g>
	<g>
		<path class="st1" d="M80.65,13.48H51.66c-1.12,0-2.02-0.91-2.02-2.02v0c0-1.12,0.91-2.02,2.02-2.02h28.99
			c1.12,0,2.02,0.91,2.02,2.02v0C82.68,12.58,81.77,13.48,80.65,13.48z"/>
	</g>
	<g>
		<path class="st1" d="M75.93,22.92H51.66c-1.12,0-2.02-0.91-2.02-2.02v0c0-1.12,0.91-2.02,2.02-2.02h24.27
			c1.12,0,2.02,0.91,2.02,2.02v0C77.96,22.02,77.05,22.92,75.93,22.92z"/>
	</g>
	<g>
		<path class="st1" d="M75.93,31.02H51.66c-1.12,0-2.02-0.91-2.02-2.02v0c0-1.12,0.91-2.02,2.02-2.02h24.27
			c1.12,0,2.02,0.91,2.02,2.02v0C77.96,30.11,77.05,31.02,75.93,31.02z"/>
	</g>
	<g>
		<path class="st2" d="M135.33,105.83c0,0-0.01,0-0.01,0L2.88,105.21c-1.32-0.01-2.43-0.87-2.78-2.14
			c-0.34-1.27,0.19-2.57,1.33-3.24l23.66-13.87h89.58l22.25,14.56c1.1,0.72,1.56,1.99,1.18,3.25
			C137.72,105.02,136.64,105.83,135.33,105.83z M135.33,103.81C135.33,103.81,135.33,103.81,135.33,103.81
			c0.6,0,0.79-0.47,0.83-0.62c0.04-0.15,0.15-0.64-0.35-0.97l-21.74-14.23H25.64L2.45,101.58c-0.53,0.31-0.44,0.82-0.4,0.97
			c0.04,0.15,0.22,0.64,0.83,0.64L135.33,103.81z"/>
	</g>
	<g>
		<path class="st2" d="M103.58,91.36H34.8c-0.19,0-0.34-0.15-0.34-0.34s0.15-0.34,0.34-0.34h68.77c0.19,0,0.34,0.15,0.34,0.34
			S103.76,91.36,103.58,91.36z"/>
	</g>
	<g>
		<path class="st2" d="M108.63,93.72H30.42c-0.19,0-0.34-0.15-0.34-0.34s0.15-0.34,0.34-0.34h78.21c0.19,0,0.34,0.15,0.34,0.34
			S108.82,93.72,108.63,93.72z"/>
	</g>
	<g>
		<path class="st2" d="M114.7,96.42H24.35c-0.19,0-0.34-0.15-0.34-0.34s0.15-0.34,0.34-0.34h90.35c0.19,0,0.34,0.15,0.34,0.34
			S114.89,96.42,114.7,96.42z"/>
	</g>
	<g>
		<path class="st2" d="M118.75,98.44H20.31c-0.19,0-0.34-0.15-0.34-0.34s0.15-0.34,0.34-0.34h98.44c0.19,0,0.34,0.15,0.34,0.34
			S118.93,98.44,118.75,98.44z"/>
	</g>
</g>
</svg>
