<?xml version="1.0" encoding="utf-8"?>
<!-- Generator: Adobe Illustrator 24.0.1, SVG Export Plug-In . SVG Version: 6.00 Build 0)  -->
<svg version="1.1" id="Layer_1" xmlns="http://www.w3.org/2000/svg" xmlns:xlink="http://www.w3.org/1999/xlink" x="0px" y="0px"
	 viewBox="0 0 358.81 93.62" style="enable-background:new 0 0 358.81 93.62;" xml:space="preserve">
<style type="text/css">
	.st0{fill:#FF6900;}
	.st1{fill:#FFFFFF;}
	.st2{fill:#D45200;}
	.st3{fill:#FAF7EC;}
	.st4{fill:url(#SVGID_1_);}
	.st5{fill:url(#SVGID_2_);}
	.st6{fill:url(#SVGID_3_);}
	.st7{fill:url(#SVGID_4_);}
	.st8{fill:url(#SVGID_5_);}
	.st9{fill:url(#SVGID_6_);}
	.st10{fill:url(#SVGID_7_);}
	.st11{fill:url(#SVGID_8_);}
	.st12{fill:url(#SVGID_9_);}
	.st13{fill:url(#SVGID_10_);}
	.st14{fill:url(#SVGID_11_);}
	.st15{fill:url(#SVGID_12_);}
	.st16{fill:url(#SVGID_13_);}
	.st17{fill:url(#SVGID_14_);}
	.st18{fill:url(#SVGID_15_);}
	.st19{fill:url(#SVGID_16_);}
	.st20{fill:url(#SVGID_17_);}
	.st21{fill:url(#SVGID_18_);}
	.st22{fill:url(#SVGID_19_);}
	.st23{fill:url(#SVGID_20_);}
	.st24{fill:url(#SVGID_21_);}
	.st25{fill:url(#SVGID_22_);}
	.st26{fill:url(#SVGID_23_);}
	.st27{fill:url(#SVGID_24_);}
	.st28{fill:url(#SVGID_25_);}
	.st29{fill:url(#SVGID_26_);}
</style>
<g>
	<linearGradient id="SVGID_1_" gradientUnits="userSpaceOnUse" x1="92.0695" y1="-5.4468" x2="92.0695" y2="85.4525">
		<stop  offset="1.118836e-07" style="stop-color:#000000"/>
		<stop  offset="1" style="stop-color:#4D4D4D"/>
	</linearGradient>
	<path class="st4" d="M87.45,41.77l3.91,3.91l0.61-4.22C90.34,41.47,88.83,41.59,87.45,41.77z M89.94,47.1l-4.89-4.9
		c-2.93,0.63-5.05,1.54-6.28,2.19l2.07,7.51c2.1-1.2,5.7-2.42,9.12-2.42c1.06,0,1.91,0.09,2.61,0.24L89.94,47.1z M107.13,66.67
		V55.73c0-7.61-3.4-13.56-13.14-14.21l-0.65,4.45l-0.55,3.81c1.95,0.48,2.48,1.5,2.48,2.47v0.29c-11,0.02-18.79,3.88-18.79,12.56
		c0,5.4,4.09,10.16,10.7,10.16c3.49,0,6.71-0.97,8.96-3.56h0.23L97,74.54h10.65C107.31,72.9,107.13,69.89,107.13,66.67z
		 M95.65,62.41c0,0.57-0.02,1.18-0.15,1.66c-0.54,1.79-2.37,2.99-4.06,2.99c-2,0-3.35-1.05-3.35-3.12c0-2.83,2.73-4.16,7.56-4.18
		V62.41z M87.45,41.77l3.91,3.91l0.61-4.22C90.34,41.47,88.83,41.59,87.45,41.77z"/>
	<linearGradient id="SVGID_2_" gradientUnits="userSpaceOnUse" x1="130.3324" y1="-5.4468" x2="130.3324" y2="85.4525">
		<stop  offset="1.118836e-07" style="stop-color:#000000"/>
		<stop  offset="1" style="stop-color:#4D4D4D"/>
	</linearGradient>
	<path class="st5" d="M114.43,53.2c0-4.31-0.13-8.02-0.26-11.02h10.23l0.53,4.13h0.23c1.18-1.68,4.27-4.85,9.7-4.85
		c7.53,0,11.66,5.15,11.66,13.99v19.09h-8.29c-1.98,0-3.58-1.6-3.58-3.58V56.92c0-3.72-1.28-5.92-4.11-5.92
		c-2.3,0-3.35,1.59-3.9,2.84c-0.26,0.59-0.33,1.51-0.33,2.38v18.31h-8.14c-2.06,0-3.73-1.67-3.73-3.73V53.2z"/>
	<linearGradient id="SVGID_3_" gradientUnits="userSpaceOnUse" x1="167.4932" y1="-5.4468" x2="167.4932" y2="85.4525">
		<stop  offset="1.118836e-07" style="stop-color:#000000"/>
		<stop  offset="1" style="stop-color:#4D4D4D"/>
	</linearGradient>
	<path class="st6" d="M174.79,74.54c-1.38,0-2.58-0.96-2.88-2.31l-0.12-0.53h-0.23c-2.25,2.6-5.47,3.57-8.96,3.57
		c-6.61,0-10.7-4.77-10.7-10.16c0-8.68,7.79-12.54,18.79-12.56v-0.3c0-1.33-1-2.76-5.31-2.76c-2.21,0-4.49,0.51-6.39,1.19
		c-1.51,0.54-3.16-0.34-3.59-1.89l-1.21-4.4c2.07-1.1,6.69-2.93,13.38-2.93c11.15,0,14.98,6.2,14.98,14.27v10.93
		c0,3.22,0.18,6.23,0.53,7.88H174.79z M171.08,59.76c-4.83,0.02-7.56,1.35-7.56,4.18c0,2.07,1.35,3.12,3.35,3.12
		c1.69,0,3.52-1.2,4.06-2.99c0.13-0.48,0.15-1.08,0.15-1.66V59.76z"/>
	<linearGradient id="SVGID_4_" gradientUnits="userSpaceOnUse" x1="205.1216" y1="-5.4468" x2="205.1216" y2="85.4525">
		<stop  offset="1.118836e-07" style="stop-color:#000000"/>
		<stop  offset="1" style="stop-color:#4D4D4D"/>
	</linearGradient>
	<path class="st7" d="M222.01,42.19c-0.15,2.01-0.28,4.78-0.28,9.98v17.67c0,5.67-1.13,11.01-5.05,14.43
		c-3.7,3.14-8.63,4.01-13.68,4.01c-4.42,0-8.98-0.86-11.98-2.4l2.22-8.94c1.97,1.08,5.62,2.35,9.31,2.35c4.23,0,7.53-2.29,7.53-7.32
		v-1.43h-0.13c-1.96,2.48-4.88,3.63-8.07,3.63c-7.94,0-13.63-6.33-13.63-15.72c0-10.21,6.54-17,14.68-17c3.95,0,6.61,1.53,8.34,4.18
		h0.13l0.38-3.45H222.01z M209.87,55.57c0-0.51-0.05-1.09-0.15-1.53c-0.53-2.33-2.06-3.68-4.19-3.68c-2.83,0-5.28,2.75-5.28,7.91
		c0,4.18,2.01,7.28,5.28,7.28c2.15,0,3.72-1.46,4.13-3.21c0.18-0.69,0.21-1.71,0.21-2.47V55.57z"/>
	<linearGradient id="SVGID_5_" gradientUnits="userSpaceOnUse" x1="243.2603" y1="-5.4468" x2="243.2603" y2="85.4525">
		<stop  offset="1.118836e-07" style="stop-color:#000000"/>
		<stop  offset="1" style="stop-color:#4D4D4D"/>
	</linearGradient>
	<path class="st8" d="M238.69,62.53c0.38,2.56,4.11,4,8.29,4c3.06,0,5.93-0.33,8.88-1.25l1.5,7.92c-3.9,1.55-8.12,2.04-12.12,2.04
		c-11.39,0-17.82-6.28-17.82-16.52c0-7.55,4.85-17.25,16.77-17.25c10.46,0,14.93,7.68,14.93,16.56c0,1.97-0.23,3.72-0.43,4.5H238.69
		z M248.19,54.5c0-1.87-0.87-5.29-4.59-5.29c-3.5,0-4.87,3.22-5.06,5.29H248.19z"/>
	<linearGradient id="SVGID_6_" gradientUnits="userSpaceOnUse" x1="281.7845" y1="-5.4468" x2="281.7845" y2="85.4525">
		<stop  offset="1.118836e-07" style="stop-color:#FF6900"/>
		<stop  offset="1" style="stop-color:#F84500"/>
	</linearGradient>
	<path class="st9" d="M264.92,30.83c3.22-0.53,7.88-0.95,14.62-0.95c6.38,0,10.95,1.15,14.06,3.53c3.02,2.24,5.05,6.15,5.05,10.67
		c0,4.49-1.5,8.42-4.31,10.93c-3.58,3.21-8.78,4.64-14.76,4.64c-1.15,0-2.17-0.1-2.89-0.15v15.04h-11.76V30.83z M276.68,50.39
		c0.64,0.11,1.43,0.16,2.71,0.16c4.62,0,7.51-2.38,7.51-6.2c0-3.3-2.19-5.54-6.71-5.54c-1.74,0-2.91,0.13-3.52,0.28V50.39z"/>
	<linearGradient id="SVGID_7_" gradientUnits="userSpaceOnUse" x1="309.6062" y1="-5.4468" x2="309.6062" y2="85.4525">
		<stop  offset="1.118836e-07" style="stop-color:#FF6900"/>
		<stop  offset="1" style="stop-color:#F84500"/>
	</linearGradient>
	<path class="st10" d="M315.64,33.28c0.02,3.14-2.33,5.61-6.12,5.61c-3.63,0-5.97-2.47-5.95-5.61c-0.02-3.24,2.35-5.62,6.03-5.62
		C313.31,27.65,315.59,30.04,315.64,33.28z M303.67,74.54V42.19h11.87v32.36H303.67z"/>
	<linearGradient id="SVGID_8_" gradientUnits="userSpaceOnUse" x1="337.0927" y1="-5.4468" x2="337.0927" y2="85.4525">
		<stop  offset="1.118836e-07" style="stop-color:#FF6900"/>
		<stop  offset="1" style="stop-color:#F84500"/>
	</linearGradient>
	<path class="st11" d="M332.52,62.53c0.38,2.56,4.11,4,8.29,4c3.06,0,5.94-0.33,8.88-1.25l1.5,7.92c-3.9,1.55-8.12,2.04-12.12,2.04
		c-11.39,0-17.82-6.28-17.82-16.52c0-7.55,4.85-17.25,16.77-17.25c10.46,0,14.93,7.68,14.93,16.56c0,1.97-0.23,3.72-0.43,4.5H332.52
		z M342.03,54.5c0-1.87-0.87-5.29-4.59-5.29c-3.5,0-4.87,3.22-5.06,5.29H342.03z"/>
	<g>
		<linearGradient id="SVGID_9_" gradientUnits="userSpaceOnUse" x1="40.9894" y1="-5.4468" x2="40.9894" y2="85.4525">
			<stop  offset="1.118836e-07" style="stop-color:#000000"/>
			<stop  offset="1" style="stop-color:#4D4D4D"/>
		</linearGradient>
		<polygon class="st12" points="63.18,20.34 70.75,27.9 44.59,54.26 23.15,32.82 23.15,75.03 11.22,75.03 11.22,4.94 45.08,38.79 		
			"/>
		<linearGradient id="SVGID_10_" gradientUnits="userSpaceOnUse" x1="70.2195" y1="-5.4468" x2="70.2195" y2="85.4525">
			<stop  offset="1.118836e-07" style="stop-color:#000000"/>
			<stop  offset="1" style="stop-color:#4D4D4D"/>
		</linearGradient>
		<polygon class="st13" points="73.52,9.79 73.52,15.57 66.91,16.53 		"/>
		<linearGradient id="SVGID_11_" gradientUnits="userSpaceOnUse" x1="69.0545" y1="-5.4468" x2="69.0545" y2="85.4525">
			<stop  offset="1.118836e-07" style="stop-color:#000000"/>
			<stop  offset="1" style="stop-color:#4D4D4D"/>
		</linearGradient>
		<polygon class="st14" points="64.6,18.89 73.52,17.59 73.52,25.11 72.16,26.48 64.58,18.9 		"/>
	</g>
	<linearGradient id="SVGID_12_" gradientUnits="userSpaceOnUse" x1="67.3606" y1="-5.4468" x2="67.3606" y2="85.4525">
		<stop  offset="1.118836e-07" style="stop-color:#000000"/>
		<stop  offset="1" style="stop-color:#4D4D4D"/>
	</linearGradient>
	<polygon class="st15" points="61.36,75.08 73.36,75.08 73.36,47.82 61.36,59.82 	"/>
	<g>
		<linearGradient id="SVGID_13_" gradientUnits="userSpaceOnUse" x1="61.4945" y1="-5.4468" x2="61.4945" y2="85.4525">
			<stop  offset="1.118836e-07" style="stop-color:#FF6900"/>
			<stop  offset="1" style="stop-color:#F84500"/>
		</linearGradient>
		<polygon class="st16" points="95.91,14.34 91.97,41.46 91.36,45.68 87.45,41.77 82.11,36.43 44.85,73.97 27.07,56.83 27.07,39.93 
			44.64,57.15 73.61,27.93 72.16,26.48 64.57,18.89 64.6,18.89 73.52,17.59 		"/>
		<path class="st1" d="M92.57,49.72l0.2,0.2l0.02-0.14C92.72,49.75,92.64,49.73,92.57,49.72z"/>
	</g>
</g>
</svg>
